<svg width="46" height="46" viewBox="0 0 46 46" fill="none" xmlns="http://www.w3.org/2000/svg">
<path d="M4.28821 4.38617C3.53505 4.13511 2.72097 4.54215 2.4699 5.29532C2.21886 6.0485 2.6259 6.86258 3.37906 7.11363L3.8868 7.28289C5.18325 7.71502 6.04039 8.00304 6.67183 8.29679C7.26976 8.57493 7.52827 8.7988 7.69391 9.02861C7.85955 9.25842 7.99017 9.57446 8.06496 10.2296C8.14397 10.9216 8.14613 11.8258 8.14613 13.1924V18.3134C8.14609 20.9346 8.14607 23.0473 8.36948 24.7091C8.60142 26.4343 9.09764 27.8869 10.2513 29.0405C11.405 30.1942 12.8576 30.6904 14.5828 30.9223C16.2445 31.1458 18.3572 31.1458 20.9784 31.1458H34.5003C35.2942 31.1458 35.9378 30.5022 35.9378 29.7083C35.9378 28.9142 35.2942 28.2708 34.5003 28.2708H21.0836C18.3324 28.2708 16.4136 28.2677 14.9659 28.073C13.5595 27.884 12.8147 27.5381 12.2842 27.0077C11.8335 26.5569 11.516 25.9513 11.3148 24.9166H30.7091C32.5482 24.9166 33.4676 24.9166 34.1877 24.4417C34.9078 23.9669 35.2698 23.1219 35.9943 21.4316L36.8156 19.5149C38.3672 15.8947 39.143 14.0846 38.2909 12.7922C37.4387 11.4999 35.4694 11.4999 31.5306 11.4999H11.0117C11.0004 10.9102 10.9756 10.3781 10.9214 9.90355C10.8153 8.97431 10.5842 8.12166 10.0262 7.34756C9.46829 6.57347 8.7325 6.08455 7.88451 5.69004C7.08671 5.31892 6.07218 4.98078 4.87162 4.58064L4.28821 4.38617Z" fill="white"/>
<path d="M14.375 34.5C15.9628 34.5 17.25 35.7872 17.25 37.375C17.25 38.9628 15.9628 40.25 14.375 40.25C12.7872 40.25 11.5 38.9628 11.5 37.375C11.5 35.7872 12.7872 34.5 14.375 34.5Z" fill="white"/>
<path d="M31.625 34.5002C33.2128 34.5002 34.5 35.7872 34.5 37.3752C34.5 38.9629 33.2128 40.2502 31.625 40.2502C30.0372 40.2502 28.75 38.9629 28.75 37.3752C28.75 35.7872 30.0372 34.5002 31.625 34.5002Z" fill="white"/>
</svg>
