<svg width="192" height="82" viewBox="0 0 192 82" fill="none" xmlns="http://www.w3.org/2000/svg">
<path d="M5.7229 76.5454V65.2341H7.27564L12.4083 73.9169H11.7613L16.9803 65.2341H18.4036V76.5454H17.0018V66.9793L17.2822 67.1085L12.4083 75.1665H11.7182L6.80119 67.0223L7.12468 66.9577V76.5454H5.7229ZM29.7912 76.5454V74.0462L29.7265 73.6368V69.457C29.7265 68.4946 29.4534 67.7549 28.907 67.2378C28.3751 66.7207 27.5771 66.4622 26.5132 66.4622C25.78 66.4622 25.0827 66.5843 24.4213 66.8284C23.76 67.0726 23.1993 67.3958 22.7392 67.798L22.0491 66.6561C22.6242 66.1677 23.3143 65.7943 24.1194 65.5357C24.9245 65.2628 25.7728 65.1264 26.6642 65.1264C28.1307 65.1264 29.2593 65.4926 30.05 66.2252C30.8551 66.9433 31.2577 68.0422 31.2577 69.5216V76.5454H29.7912ZM25.8878 76.6532C25.0395 76.6532 24.2991 76.5167 23.6665 76.2438C23.0483 75.9565 22.5738 75.5687 22.2432 75.0803C21.9125 74.5776 21.7472 74.0031 21.7472 73.3567C21.7472 72.7678 21.8837 72.2364 22.1569 71.7624C22.4445 71.274 22.9045 70.8862 23.5371 70.5989C24.1841 70.2973 25.0467 70.1464 26.125 70.1464H30.0285V71.2884H26.1682C25.0755 71.2884 24.3135 71.4823 23.8822 71.8701C23.4652 72.2579 23.2568 72.7391 23.2568 73.3136C23.2568 73.96 23.5084 74.4771 24.0116 74.8649C24.5148 75.2527 25.2193 75.4466 26.125 75.4466C26.9877 75.4466 27.7281 75.2527 28.3463 74.8649C28.9789 74.4627 29.439 73.8882 29.7265 73.1413L30.0716 74.197C29.784 74.9439 29.2808 75.54 28.562 75.9853C27.8575 76.4305 26.9661 76.6532 25.8878 76.6532ZM35.3338 76.5454V65.2341H43.3563V66.5699H36.4768L36.865 66.1821V76.5454H35.3338ZM52.5997 76.5454V74.0462L52.535 73.6368V69.457C52.535 68.4946 52.2619 67.7549 51.7155 67.2378C51.1836 66.7207 50.3856 66.4622 49.3217 66.4622C48.5885 66.4622 47.8912 66.5843 47.2298 66.8284C46.5685 67.0726 46.0078 67.3958 45.5477 67.798L44.8576 66.6561C45.4327 66.1677 46.1228 65.7943 46.9279 65.5357C47.733 65.2628 48.5813 65.1264 49.4727 65.1264C50.9392 65.1264 52.0678 65.4926 52.8585 66.2252C53.6636 66.9433 54.0662 68.0422 54.0662 69.5216V76.5454H52.5997ZM48.6963 76.6532C47.8481 76.6532 47.1076 76.5167 46.475 76.2438C45.8568 75.9565 45.3824 75.5687 45.0517 75.0803C44.721 74.5776 44.5557 74.0031 44.5557 73.3567C44.5557 72.7678 44.6922 72.2364 44.9654 71.7624C45.253 71.274 45.713 70.8862 46.3456 70.5989C46.9926 70.2973 47.8552 70.1464 48.9335 70.1464H52.837V71.2884H48.9767C47.884 71.2884 47.122 71.4823 46.6907 71.8701C46.2737 72.2579 46.0653 72.7391 46.0653 73.3136C46.0653 73.96 46.3169 74.4771 46.8201 74.8649C47.3233 75.2527 48.0278 75.4466 48.9335 75.4466C49.7962 75.4466 50.5366 75.2527 51.1548 74.8649C51.7874 74.4627 52.2475 73.8882 52.535 73.1413L52.8801 74.197C52.5925 74.9439 52.0893 75.54 51.3705 75.9853C50.666 76.4305 49.7746 76.6532 48.6963 76.6532ZM60.9515 76.6747C60.132 76.6747 59.3196 76.5598 58.5145 76.33C57.7094 76.1002 56.9977 75.7483 56.3795 75.2743L56.8755 74.1323C57.4218 74.5345 58.0544 74.8434 58.7733 75.0588C59.4922 75.2599 60.2038 75.3604 60.9083 75.3604C61.6128 75.3461 62.2239 75.2455 62.7414 75.0588C63.259 74.8721 63.6616 74.6135 63.9491 74.2832C64.2367 73.9528 64.3804 73.5793 64.3804 73.1628C64.3804 72.5595 64.1073 72.0927 63.5609 71.7624C63.0146 71.4176 62.267 71.2453 61.3181 71.2453H59.3772V70.1249H61.2103C61.771 70.1249 62.267 70.0531 62.6983 69.9094C63.1296 69.7658 63.4603 69.5575 63.6903 69.2846C63.9347 69.0117 64.0569 68.6885 64.0569 68.3151C64.0569 67.9129 63.9132 67.5682 63.6256 67.2809C63.3525 66.9936 62.9715 66.7782 62.4826 66.6345C61.9938 66.4909 61.4403 66.4191 60.8221 66.4191C60.2613 66.4334 59.6791 66.5196 59.0752 66.6776C58.4714 66.8213 57.8747 67.0439 57.2853 67.3455L56.8539 66.1605C57.5153 65.8158 58.1695 65.5573 58.8164 65.3849C59.4778 65.1982 60.1391 65.1048 60.8005 65.1048C61.7063 65.0761 62.5186 65.1838 63.2374 65.428C63.9707 65.6722 64.553 66.0241 64.9843 66.4837C65.4156 66.929 65.6313 67.4676 65.6313 68.0996C65.6313 68.6598 65.4587 69.1482 65.1137 69.5647C64.7686 69.9813 64.3085 70.3044 63.7335 70.5343C63.1584 70.7641 62.5042 70.879 61.771 70.879L61.8357 70.4696C63.1296 70.4696 64.136 70.721 64.8549 71.2237C65.5881 71.7264 65.9547 72.4087 65.9547 73.2705C65.9547 73.9456 65.7319 74.5417 65.2862 75.0588C64.8405 75.5615 64.2367 75.9565 63.4747 76.2438C62.727 76.5311 61.886 76.6747 60.9515 76.6747ZM69.4307 76.5454V65.2341H70.9619V74.2185L78.5315 65.2341H79.8901V76.5454H78.3589V67.5394L70.8109 76.5454H69.4307ZM84.2783 76.5454V65.2341H85.8095V70.2326H92.948V65.2341H94.4786V76.5454H92.948V71.5469H85.8095V76.5454H84.2783ZM104.475 76.5454V65.2341H106.028L111.161 73.9169H110.514L115.732 65.2341H117.156V76.5454H115.754V66.9793L116.034 67.1085L111.161 75.1665H110.471L105.554 67.0223L105.877 66.9577V76.5454H104.475ZM126.365 76.6532C125.187 76.6532 124.151 76.409 123.26 75.9206C122.369 75.4179 121.672 74.7356 121.168 73.8738C120.665 72.9976 120.413 71.9993 120.413 70.879C120.413 69.7586 120.651 68.7675 121.125 67.9057C121.613 67.0439 122.275 66.3688 123.109 65.8804C123.957 65.3777 124.906 65.1264 125.956 65.1264C127.019 65.1264 127.961 65.3705 128.781 65.8589C129.615 66.3329 130.269 67.008 130.743 67.8842C131.218 68.746 131.455 69.7443 131.455 70.879C131.455 70.9508 131.448 71.0298 131.434 71.116C131.434 71.1878 131.434 71.2668 131.434 71.353H121.578V70.2111H130.614L130.01 70.6635C130.01 69.8448 129.83 69.1194 129.471 68.4874C129.126 67.8411 128.652 67.3384 128.048 66.9793C127.443 66.6202 126.746 66.4406 125.956 66.4406C125.179 66.4406 124.482 66.6202 123.864 66.9793C123.246 67.3384 122.764 67.8411 122.419 68.4874C122.074 69.1338 121.901 69.8735 121.901 70.7066V70.9436C121.901 71.8054 122.088 72.5667 122.462 73.2274C122.85 73.8738 123.382 74.3837 124.057 74.7572C124.748 75.1163 125.532 75.2958 126.409 75.2958C127.099 75.2958 127.738 75.1737 128.328 74.9295C128.932 74.6854 129.449 74.3119 129.88 73.8092L130.743 74.8003C130.24 75.4035 129.607 75.8632 128.846 76.1792C128.098 76.4952 127.271 76.6532 126.365 76.6532ZM139.934 76.6747C139.013 76.6747 138.195 76.5239 137.476 76.2223C136.771 75.9206 136.167 75.461 135.664 74.8434C135.161 74.2257 134.779 73.4644 134.521 72.5595C134.262 71.6403 134.132 70.5774 134.132 69.3708C134.132 68.2935 134.233 67.3527 134.435 66.5483C134.636 65.7296 134.916 65.0258 135.275 64.4369C135.635 63.848 136.052 63.3524 136.527 62.9503C137.015 62.5337 137.54 62.2034 138.101 61.9592C138.676 61.7006 139.266 61.5067 139.869 61.3774L144.959 60.1924L145.218 61.6144L140.43 62.6917C140.128 62.7635 139.761 62.8641 139.33 62.9933C138.913 63.1226 138.482 63.3165 138.036 63.5751C137.605 63.8336 137.203 64.1927 136.829 64.6524C136.455 65.112 136.153 65.7081 135.922 66.4406C135.707 67.1588 135.599 68.0565 135.599 69.1338C135.599 69.3636 135.607 69.5504 135.621 69.694C135.635 69.8233 135.649 69.9669 135.664 70.1249C135.693 70.2685 135.714 70.484 135.729 70.7713L135.06 70.2111C135.218 69.3349 135.542 68.5736 136.031 67.9273C136.519 67.2665 137.131 66.7566 137.863 66.3975C138.611 66.0241 139.438 65.8373 140.344 65.8373C141.393 65.8373 142.328 66.0672 143.147 66.5268C143.966 66.9721 144.607 67.5969 145.066 68.4013C145.541 69.2056 145.778 70.1393 145.778 71.2022C145.778 72.2507 145.534 73.1915 145.045 74.0246C144.571 74.8577 143.894 75.5113 143.018 75.9853C142.141 76.4449 141.113 76.6747 139.934 76.6747ZM140.106 75.4035C140.912 75.4035 141.623 75.224 142.241 74.8649C142.86 74.4914 143.341 73.9887 143.686 73.3567C144.046 72.7247 144.226 72.0137 144.226 71.2237C144.226 70.4481 144.046 69.7586 143.686 69.1554C143.341 68.5521 142.86 68.0781 142.241 67.7334C141.623 67.3743 140.904 67.1947 140.084 67.1947C139.28 67.1947 138.568 67.3671 137.95 67.7118C137.332 68.0422 136.843 68.509 136.484 69.1123C136.138 69.7155 135.966 70.4122 135.966 71.2022C135.966 71.9922 136.138 72.7032 136.484 73.3352C136.843 73.9672 137.332 74.4699 137.95 74.8434C138.582 75.2168 139.301 75.4035 140.106 75.4035ZM153.912 76.6532C152.734 76.6532 151.698 76.409 150.807 75.9206C149.916 75.4179 149.219 74.7356 148.715 73.8738C148.212 72.9976 147.96 71.9993 147.96 70.879C147.96 69.7586 148.198 68.7675 148.672 67.9057C149.16 67.0439 149.822 66.3688 150.656 65.8804C151.504 65.3777 152.453 65.1264 153.503 65.1264C154.566 65.1264 155.508 65.3705 156.328 65.8589C157.162 66.3329 157.816 67.008 158.29 67.8842C158.765 68.746 159.002 69.7443 159.002 70.879C159.002 70.9508 158.995 71.0298 158.981 71.116C158.981 71.1878 158.981 71.2668 158.981 71.353H149.125V70.2111H158.161L157.557 70.6635C157.557 69.8448 157.377 69.1194 157.018 68.4874C156.673 67.8411 156.199 67.3384 155.595 66.9793C154.99 66.6202 154.293 66.4406 153.503 66.4406C152.726 66.4406 152.029 66.6202 151.411 66.9793C150.793 67.3384 150.311 67.8411 149.966 68.4874C149.621 69.1338 149.448 69.8735 149.448 70.7066V70.9436C149.448 71.8054 149.635 72.5667 150.009 73.2274C150.397 73.8738 150.929 74.3837 151.604 74.7572C152.295 75.1163 153.079 75.2958 153.956 75.2958C154.646 75.2958 155.285 75.1737 155.875 74.9295C156.479 74.6854 156.996 74.3119 157.427 73.8092L158.29 74.8003C157.787 75.4035 157.154 75.8632 156.393 76.1792C155.645 76.4952 154.818 76.6532 153.912 76.6532ZM160.09 76.5239L160.197 75.2096C160.298 75.224 160.391 75.2455 160.477 75.2743C160.578 75.2886 160.665 75.2958 160.737 75.2958C161.196 75.2958 161.563 75.1234 161.836 74.7787C162.124 74.434 162.339 73.9744 162.483 73.3998C162.627 72.8253 162.728 72.1789 162.785 71.4607C162.842 70.7282 162.893 69.9956 162.936 69.2631L163.13 65.2341H171.433V76.5454H169.902V66.1174L170.29 66.5699H164.122L164.489 66.0959L164.317 69.3708C164.273 70.3475 164.194 71.2812 164.079 72.1717C163.978 73.0623 163.813 73.8451 163.583 74.5202C163.367 75.1953 163.065 75.7267 162.678 76.1145C162.289 76.488 161.793 76.6747 161.189 76.6747C161.017 76.6747 160.837 76.6604 160.65 76.6316C160.477 76.6029 160.291 76.567 160.09 76.5239ZM175.786 76.5454V65.2341H177.317V74.2185L184.887 65.2341H186.245V76.5454H184.714V67.5394L177.166 76.5454H175.786Z" fill="white"/>
<path d="M184.265 42.9091H7.7346C6.47822 42.9091 5.45972 43.9267 5.45972 45.1818C5.45972 46.437 6.47822 47.4546 7.7346 47.4546H184.265C185.522 47.4546 186.54 46.437 186.54 45.1818C186.54 43.9267 185.522 42.9091 184.265 42.9091Z" fill="#5CCDFF"/>
<path d="M5.18677 35.6364V3.8182H17.1071C19.8067 3.8182 22.1271 4.25756 24.0683 5.13638C26.0095 5.98483 27.4958 7.22729 28.5271 8.86365C29.5887 10.4697 30.1195 12.4243 30.1195 14.7273C30.1195 16.9697 29.5887 18.9091 28.5271 20.5455C27.4958 22.1516 26.0095 23.3939 24.0683 24.2727C22.1271 25.1212 19.8067 25.5455 17.1071 25.5455H7.05217L8.55359 24V35.6364H5.18677ZM26.9346 35.6364L18.7451 24.0909H22.3849L30.6199 35.6364H26.9346ZM8.55359 24.2727L7.05217 22.6818H17.0162C20.201 22.6818 22.6124 21.9848 24.2503 20.5909C25.9185 19.197 26.7526 17.2425 26.7526 14.7273C26.7526 12.1818 25.9185 10.2121 24.2503 8.8182C22.6124 7.42429 20.201 6.72729 17.0162 6.72729H7.05217L8.55359 5.13638V24.2727ZM41.0687 18.0455H57.9029V20.9091H41.0687V18.0455ZM41.4327 32.7273H60.5872V35.6364H38.0659V3.8182H59.9048V6.72729H41.4327V32.7273ZM77.2824 35.9091C74.9165 35.9091 72.6416 35.5303 70.4578 34.7727C68.3042 33.9848 66.636 32.9848 65.453 31.7727L66.7724 29.1818C67.8947 30.2727 69.3961 31.197 71.2767 31.9546C73.1876 32.6818 75.1895 33.0455 77.2824 33.0455C79.2843 33.0455 80.907 32.803 82.1506 32.3182C83.4246 31.803 84.3496 31.1212 84.926 30.2727C85.5326 29.4243 85.836 28.4848 85.836 27.4546C85.836 26.2121 85.472 25.2121 84.744 24.4546C84.0463 23.697 83.1212 23.1061 81.9687 22.6818C80.816 22.2273 79.5421 21.8334 78.1469 21.5C76.7515 21.1667 75.3563 20.8182 73.9611 20.4546C72.5657 20.0607 71.2767 19.5455 70.0938 18.9091C68.9411 18.2727 68.0009 17.4394 67.2729 16.4091C66.5753 15.3485 66.2265 13.9697 66.2265 12.2727C66.2265 10.697 66.636 9.25756 67.4549 7.95456C68.3042 6.6212 69.5933 5.56065 71.3222 4.77274C73.0511 3.95456 75.2653 3.54547 77.9649 3.54547C79.7544 3.54547 81.5288 3.80302 83.2881 4.3182C85.0473 4.80302 86.5639 5.48483 87.8378 6.36365L86.7004 9.04547C85.3355 8.13638 83.8796 7.46974 82.3326 7.04547C80.816 6.6212 79.3449 6.40911 77.9194 6.40911C76.0085 6.40911 74.4312 6.66665 73.1876 7.18184C71.944 7.69702 71.0188 8.39393 70.4123 9.27274C69.8359 10.1212 69.5478 11.0909 69.5478 12.1818C69.5478 13.4243 69.8966 14.4243 70.5943 15.1818C71.3222 15.9394 72.2625 16.5303 73.4151 16.9546C74.598 17.3788 75.8871 17.7576 77.2824 18.0909C78.6776 18.4243 80.0578 18.7879 81.4227 19.1818C82.8179 19.5757 84.0918 20.0909 85.2445 20.7273C86.4274 21.3334 87.3677 22.1516 88.0653 23.1818C88.7933 24.2121 89.1573 25.5606 89.1573 27.2273C89.1573 28.7727 88.7326 30.2121 87.8833 31.5455C87.034 32.8485 85.7298 33.9091 83.9705 34.7273C82.2416 35.5152 80.0123 35.9091 77.2824 35.9091ZM102.237 35.6364V6.72729H91.0444V3.8182H116.796V6.72729H105.604V35.6364H102.237ZM135.652 35.9091C133.256 35.9091 131.027 35.5152 128.964 34.7273C126.932 33.9091 125.158 32.7727 123.641 31.3182C122.155 29.8334 120.987 28.1212 120.137 26.1818C119.318 24.2121 118.909 22.0607 118.909 19.7273C118.909 17.3939 119.318 15.2576 120.137 13.3182C120.987 11.3485 122.155 9.63638 123.641 8.18183C125.158 6.69702 126.932 5.56065 128.964 4.77274C130.997 3.95456 133.226 3.54547 135.652 3.54547C138.049 3.54547 140.263 3.95456 142.295 4.77274C144.328 5.56065 146.087 6.68183 147.572 8.13638C149.089 9.59093 150.257 11.303 151.076 13.2727C151.926 15.2425 152.35 17.3939 152.35 19.7273C152.35 22.0607 151.926 24.2121 151.076 26.1818C150.257 28.1516 149.089 29.8636 147.572 31.3182C146.087 32.7727 144.328 33.9091 142.295 34.7273C140.263 35.5152 138.049 35.9091 135.652 35.9091ZM135.652 32.9091C137.563 32.9091 139.323 32.5909 140.93 31.9546C142.568 31.2879 143.978 30.3637 145.161 29.1818C146.375 27.9697 147.315 26.5757 147.982 25C148.65 23.3939 148.983 21.6364 148.983 19.7273C148.983 17.8182 148.65 16.0757 147.982 14.5C147.315 12.8939 146.375 11.5 145.161 10.3182C143.978 9.10611 142.568 8.18184 140.93 7.54547C139.323 6.87884 137.563 6.54547 135.652 6.54547C133.741 6.54547 131.967 6.87884 130.329 7.54547C128.691 8.18184 127.266 9.10611 126.052 10.3182C124.869 11.5 123.929 12.8939 123.231 14.5C122.564 16.0757 122.23 17.8182 122.23 19.7273C122.23 21.6061 122.564 23.3485 123.231 24.9546C123.929 26.5607 124.869 27.9697 126.052 29.1818C127.266 30.3637 128.691 31.2879 130.329 31.9546C131.967 32.5909 133.741 32.9091 135.652 32.9091ZM159.897 35.6364V3.8182H162.672L184.648 31.4546H183.192V3.8182H186.513V35.6364H183.738L161.808 8.00002H163.264V35.6364H159.897Z" fill="#5CCDFF"/>
</svg>
