<svg width="211" height="99" viewBox="0 0 211 99" fill="none" xmlns="http://www.w3.org/2000/svg">
<path d="M6.28921 93V80.5575H7.99561L13.6362 90.1086H12.9252L18.6606 80.5575H20.2248V93H18.6843V82.4772L18.9924 82.6194L13.6362 91.4832H12.8778L7.47421 82.5246L7.82971 82.4535V93H6.28921ZM32.7393 93V90.2508L32.6682 89.8005V85.2027C32.6682 84.1441 32.368 83.3304 31.7676 82.7616C31.183 82.1928 30.3061 81.9084 29.1369 81.9084C28.3311 81.9084 27.5648 82.0427 26.838 82.3113C26.1112 82.5799 25.495 82.9354 24.9894 83.3778L24.231 82.1217C24.863 81.5845 25.6214 81.1737 26.5062 80.8893C27.391 80.5891 28.3232 80.439 29.3028 80.439C30.9144 80.439 32.1547 80.8419 33.0237 81.6477C33.9085 82.4377 34.3509 83.6464 34.3509 85.2738V93H32.7393ZM28.4496 93.1185C27.5174 93.1185 26.7037 92.9684 26.0085 92.6682C25.3291 92.3522 24.8077 91.9256 24.4443 91.3884C24.0809 90.8354 23.8992 90.2034 23.8992 89.4924C23.8992 88.8446 24.0493 88.26 24.3495 87.7386C24.6655 87.2014 25.1711 86.7748 25.8663 86.4588C26.5773 86.127 27.5253 85.9611 28.7103 85.9611H33V87.2172H28.7577C27.5569 87.2172 26.7195 87.4305 26.2455 87.8571C25.7873 88.2837 25.5582 88.813 25.5582 89.445C25.5582 90.156 25.8347 90.7248 26.3877 91.1514C26.9407 91.578 27.7149 91.7913 28.7103 91.7913C29.6583 91.7913 30.472 91.578 31.1514 91.1514C31.8466 90.709 32.3522 90.077 32.6682 89.2554L33.0474 90.4167C32.7314 91.2383 32.1784 91.894 31.3884 92.3838C30.6142 92.8736 29.6346 93.1185 28.4496 93.1185ZM38.8304 93V80.5575H47.6468V82.0269H40.0865L40.5131 81.6003V93H38.8304ZM57.8049 93V90.2508L57.7338 89.8005V85.2027C57.7338 84.1441 57.4336 83.3304 56.8332 82.7616C56.2486 82.1928 55.3717 81.9084 54.2025 81.9084C53.3967 81.9084 52.6304 82.0427 51.9036 82.3113C51.1768 82.5799 50.5606 82.9354 50.055 83.3778L49.2966 82.1217C49.9286 81.5845 50.687 81.1737 51.5718 80.8893C52.4566 80.5891 53.3888 80.439 54.3684 80.439C55.98 80.439 57.2203 80.8419 58.0893 81.6477C58.9741 82.4377 59.4165 83.6464 59.4165 85.2738V93H57.8049ZM53.5152 93.1185C52.583 93.1185 51.7693 92.9684 51.0741 92.6682C50.3947 92.3522 49.8733 91.9256 49.5099 91.3884C49.1465 90.8354 48.9648 90.2034 48.9648 89.4924C48.9648 88.8446 49.1149 88.26 49.4151 87.7386C49.7311 87.2014 50.2367 86.7748 50.9319 86.4588C51.6429 86.127 52.5909 85.9611 53.7759 85.9611H58.0656V87.2172H53.8233C52.6225 87.2172 51.7851 87.4305 51.3111 87.8571C50.8529 88.2837 50.6238 88.813 50.6238 89.445C50.6238 90.156 50.9003 90.7248 51.4533 91.1514C52.0063 91.578 52.7805 91.7913 53.7759 91.7913C54.7239 91.7913 55.5376 91.578 56.217 91.1514C56.9122 90.709 57.4178 90.077 57.7338 89.2554L58.113 90.4167C57.797 91.2383 57.244 91.894 56.454 92.3838C55.6798 92.8736 54.7002 93.1185 53.5152 93.1185ZM66.9831 93.1422C66.0825 93.1422 65.1898 93.0158 64.305 92.763C63.4202 92.5102 62.6381 92.1231 61.9587 91.6017L62.5038 90.3456C63.1042 90.788 63.7994 91.1277 64.5894 91.3647C65.3794 91.5859 66.1615 91.6965 66.9357 91.6965C67.7099 91.6807 68.3814 91.5701 68.9502 91.3647C69.519 91.1593 69.9614 90.8749 70.2774 90.5115C70.5934 90.1481 70.7514 89.7373 70.7514 89.2791C70.7514 88.6155 70.4512 88.102 69.8508 87.7386C69.2504 87.3594 68.4288 87.1698 67.386 87.1698H65.253V85.9374H67.2675C67.8837 85.9374 68.4288 85.8584 68.9028 85.7004C69.3768 85.5424 69.7402 85.3133 69.993 85.0131C70.2616 84.7129 70.3959 84.3574 70.3959 83.9466C70.3959 83.5042 70.2379 83.125 69.9219 82.809C69.6217 82.493 69.203 82.256 68.6658 82.098C68.1286 81.94 67.5203 81.861 66.8409 81.861C66.2247 81.8768 65.5848 81.9716 64.9212 82.1454C64.2576 82.3034 63.6019 82.5483 62.9541 82.8801L62.4801 81.5766C63.2069 81.1974 63.9258 80.913 64.6368 80.7234C65.3636 80.518 66.0904 80.4153 66.8172 80.4153C67.8126 80.3837 68.7053 80.5022 69.4953 80.7708C70.3011 81.0394 70.941 81.4265 71.415 81.9321C71.889 82.4219 72.126 83.0144 72.126 83.7096C72.126 84.3258 71.9364 84.863 71.5572 85.3212C71.178 85.7794 70.6724 86.1349 70.0404 86.3877C69.4084 86.6405 68.6895 86.7669 67.8837 86.7669L67.9548 86.3166C69.3768 86.3166 70.4828 86.5931 71.2728 87.1461C72.0786 87.6991 72.4815 88.4496 72.4815 89.3976C72.4815 90.1402 72.2366 90.7959 71.7468 91.3647C71.257 91.9177 70.5934 92.3522 69.756 92.6682C68.9344 92.9842 68.0101 93.1422 66.9831 93.1422ZM76.3014 93V80.5575H77.9841V90.4404L86.3028 80.5575H87.7959V93H86.1132V83.0934L77.8182 93H76.3014ZM92.6183 93V80.5575H94.301V86.0559H102.146V80.5575H103.828V93H102.146V87.5016H94.301V93H92.6183ZM114.814 93V80.5575H116.52L122.161 90.1086H121.45L127.185 80.5575H128.75V93H127.209V82.4772L127.517 82.6194L122.161 91.4832H121.403L115.999 82.5246L116.354 82.4535V93H114.814ZM138.87 93.1185C137.575 93.1185 136.437 92.8499 135.458 92.3127C134.478 91.7597 133.712 91.0092 133.159 90.0612C132.606 89.0974 132.329 87.9993 132.329 86.7669C132.329 85.5345 132.59 84.4443 133.111 83.4963C133.648 82.5483 134.375 81.8057 135.292 81.2685C136.224 80.7155 137.267 80.439 138.42 80.439C139.589 80.439 140.624 80.7076 141.525 81.2448C142.441 81.7662 143.16 82.5088 143.681 83.4726C144.203 84.4206 144.464 85.5187 144.464 86.7669C144.464 86.8459 144.456 86.9328 144.44 87.0276C144.44 87.1066 144.44 87.1935 144.44 87.2883H133.609V86.0322H143.539L142.876 86.5299C142.876 85.6293 142.678 84.8314 142.283 84.1362C141.904 83.4252 141.383 82.8722 140.719 82.4772C140.055 82.0822 139.289 81.8847 138.42 81.8847C137.567 81.8847 136.801 82.0822 136.121 82.4772C135.442 82.8722 134.912 83.4252 134.533 84.1362C134.154 84.8472 133.964 85.6609 133.964 86.5773V86.838C133.964 87.786 134.17 88.6234 134.581 89.3502C135.007 90.0612 135.592 90.6221 136.334 91.0329C137.093 91.4279 137.954 91.6254 138.918 91.6254C139.676 91.6254 140.379 91.4911 141.027 91.2225C141.691 90.9539 142.259 90.5431 142.733 89.9901L143.681 91.0803C143.128 91.7439 142.433 92.2495 141.596 92.5971C140.774 92.9447 139.866 93.1185 138.87 93.1185ZM153.782 93.1422C152.77 93.1422 151.87 92.9763 151.08 92.6445C150.306 92.3127 149.642 91.8071 149.089 91.1277C148.536 90.4483 148.117 89.6109 147.833 88.6155C147.548 87.6043 147.406 86.4351 147.406 85.1079C147.406 83.9229 147.517 82.888 147.738 82.0032C147.959 81.1026 148.267 80.3284 148.662 79.6806C149.057 79.0328 149.516 78.4877 150.037 78.0453C150.574 77.5871 151.151 77.2237 151.767 76.9551C152.399 76.6707 153.047 76.4574 153.71 76.3152L159.304 75.0117L159.588 76.5759L154.327 77.7609C153.995 77.8399 153.592 77.9505 153.118 78.0927C152.66 78.2349 152.186 78.4482 151.696 78.7326C151.222 79.017 150.78 79.412 150.369 79.9176C149.958 80.4232 149.626 81.0789 149.373 81.8847C149.136 82.6747 149.018 83.6622 149.018 84.8472C149.018 85.1 149.026 85.3054 149.042 85.4634C149.057 85.6056 149.073 85.7636 149.089 85.9374C149.121 86.0954 149.144 86.3324 149.16 86.6484L148.425 86.0322C148.599 85.0684 148.955 84.231 149.492 83.52C150.029 82.7932 150.701 82.2323 151.506 81.8373C152.328 81.4265 153.236 81.2211 154.232 81.2211C155.385 81.2211 156.412 81.4739 157.313 81.9795C158.213 82.4693 158.917 83.1566 159.422 84.0414C159.944 84.9262 160.204 85.9532 160.204 87.1224C160.204 88.2758 159.936 89.3107 159.398 90.2271C158.877 91.1435 158.134 91.8624 157.171 92.3838C156.207 92.8894 155.077 93.1422 153.782 93.1422ZM153.971 91.7439C154.856 91.7439 155.638 91.5464 156.317 91.1514C156.997 90.7406 157.526 90.1876 157.905 89.4924C158.3 88.7972 158.498 88.0151 158.498 87.1461C158.498 86.2929 158.3 85.5345 157.905 84.8709C157.526 84.2073 156.997 83.6859 156.317 83.3067C155.638 82.9117 154.848 82.7142 153.947 82.7142C153.063 82.7142 152.281 82.9038 151.601 83.283C150.922 83.6464 150.385 84.1599 149.99 84.8235C149.61 85.4871 149.421 86.2534 149.421 87.1224C149.421 87.9914 149.61 88.7735 149.99 89.4687C150.385 90.1639 150.922 90.7169 151.601 91.1277C152.296 91.5385 153.086 91.7439 153.971 91.7439ZM169.143 93.1185C167.848 93.1185 166.71 92.8499 165.731 92.3127C164.751 91.7597 163.985 91.0092 163.432 90.0612C162.879 89.0974 162.602 87.9993 162.602 86.7669C162.602 85.5345 162.863 84.4443 163.384 83.4963C163.921 82.5483 164.648 81.8057 165.565 81.2685C166.497 80.7155 167.54 80.439 168.693 80.439C169.862 80.439 170.897 80.7076 171.798 81.2448C172.714 81.7662 173.433 82.5088 173.954 83.4726C174.476 84.4206 174.737 85.5187 174.737 86.7669C174.737 86.8459 174.729 86.9328 174.713 87.0276C174.713 87.1066 174.713 87.1935 174.713 87.2883H163.882V86.0322H173.812L173.149 86.5299C173.149 85.6293 172.951 84.8314 172.556 84.1362C172.177 83.4252 171.656 82.8722 170.992 82.4772C170.328 82.0822 169.562 81.8847 168.693 81.8847C167.84 81.8847 167.074 82.0822 166.394 82.4772C165.715 82.8722 165.185 83.4252 164.806 84.1362C164.427 84.8472 164.237 85.6609 164.237 86.5773V86.838C164.237 87.786 164.443 88.6234 164.854 89.3502C165.28 90.0612 165.865 90.6221 166.607 91.0329C167.366 91.4279 168.227 91.6254 169.191 91.6254C169.949 91.6254 170.652 91.4911 171.3 91.2225C171.964 90.9539 172.532 90.5431 173.006 89.9901L173.954 91.0803C173.401 91.7439 172.706 92.2495 171.869 92.5971C171.047 92.9447 170.139 93.1185 169.143 93.1185ZM175.932 92.9763L176.05 91.5306C176.161 91.5464 176.263 91.5701 176.358 91.6017C176.469 91.6175 176.564 91.6254 176.643 91.6254C177.148 91.6254 177.551 91.4358 177.851 91.0566C178.167 90.6774 178.404 90.1718 178.562 89.5398C178.72 88.9078 178.831 88.1968 178.894 87.4068C178.957 86.601 179.013 85.7952 179.06 84.9894L179.273 80.5575H188.398V93H186.715V81.5292L187.142 82.0269H180.363L180.766 81.5055L180.577 85.1079C180.529 86.1823 180.442 87.2093 180.316 88.1889C180.205 89.1685 180.024 90.0296 179.771 90.7722C179.534 91.5148 179.202 92.0994 178.776 92.526C178.349 92.9368 177.804 93.1422 177.14 93.1422C176.951 93.1422 176.753 93.1264 176.548 93.0948C176.358 93.0632 176.153 93.0237 175.932 92.9763ZM193.181 93V80.5575H194.864V90.4404L203.183 80.5575H204.676V93H202.993V83.0934L194.698 93H193.181Z" fill="white"/>
<rect x="6" y="56" width="199" height="5" rx="2.5" fill="#5CCDFF"/>
<path d="M5.7 48V13H18.8C21.7667 13 24.3167 13.4833 26.45 14.45C28.5833 15.3833 30.2167 16.75 31.35 18.55C32.5167 20.3167 33.1 22.4667 33.1 25C33.1 27.4667 32.5167 29.6 31.35 31.4C30.2167 33.1667 28.5833 34.5333 26.45 35.5C24.3167 36.4333 21.7667 36.9 18.8 36.9H7.75L9.4 35.2V48H5.7ZM29.6 48L20.6 35.3H24.6L33.65 48H29.6ZM9.4 35.5L7.75 33.75H18.7C22.2 33.75 24.85 32.9833 26.65 31.45C28.4833 29.9167 29.4 27.7667 29.4 25C29.4 22.2 28.4833 20.0333 26.65 18.5C24.85 16.9667 22.2 16.2 18.7 16.2H7.75L9.4 14.45V35.5ZM45.1328 28.65H63.6328V31.8H45.1328V28.65ZM45.5328 44.8H66.5828V48H41.8328V13H65.8328V16.2H45.5328V44.8ZM84.9301 48.3C82.3301 48.3 79.8301 47.8833 77.4301 47.05C75.0634 46.1833 73.2301 45.0833 71.9301 43.75L73.3801 40.9C74.6134 42.1 76.2634 43.1167 78.3301 43.95C80.4301 44.75 82.6301 45.15 84.9301 45.15C87.1301 45.15 88.9134 44.8833 90.2801 44.35C91.6801 43.7833 92.6967 43.0333 93.3301 42.1C93.9967 41.1667 94.3301 40.1333 94.3301 39C94.3301 37.6333 93.9301 36.5333 93.1301 35.7C92.3634 34.8667 91.3467 34.2167 90.0801 33.75C88.8134 33.25 87.4134 32.8167 85.8801 32.45C84.3467 32.0833 82.8134 31.7 81.2801 31.3C79.7467 30.8667 78.3301 30.3 77.0301 29.6C75.7634 28.9 74.7301 27.9833 73.9301 26.85C73.1634 25.6833 72.7801 24.1667 72.7801 22.3C72.7801 20.5667 73.2301 18.9833 74.1301 17.55C75.0634 16.0833 76.4801 14.9167 78.3801 14.05C80.2801 13.15 82.7134 12.7 85.6801 12.7C87.6467 12.7 89.5967 12.9833 91.5301 13.55C93.4634 14.0833 95.1301 14.8333 96.5301 15.8L95.2801 18.75C93.7801 17.75 92.1801 17.0167 90.4801 16.55C88.8134 16.0833 87.1967 15.85 85.6301 15.85C83.5301 15.85 81.7967 16.1333 80.4301 16.7C79.0634 17.2667 78.0467 18.0333 77.3801 19C76.7467 19.9333 76.4301 21 76.4301 22.2C76.4301 23.5667 76.8134 24.6667 77.5801 25.5C78.3801 26.3333 79.4134 26.9833 80.6801 27.45C81.9801 27.9167 83.3967 28.3333 84.9301 28.7C86.4634 29.0667 87.9801 29.4667 89.4801 29.9C91.0134 30.3333 92.4134 30.9 93.6801 31.6C94.9801 32.2667 96.0134 33.1667 96.7801 34.3C97.5801 35.4333 97.9801 36.9167 97.9801 38.75C97.9801 40.45 97.5134 42.0333 96.5801 43.5C95.6467 44.9333 94.2134 46.1 92.2801 47C90.3801 47.8667 87.9301 48.3 84.9301 48.3ZM112.354 48V16.2H100.054V13H128.354V16.2H116.054V48H112.354ZM149.076 48.3C146.443 48.3 143.993 47.8667 141.726 47C139.493 46.1 137.543 44.85 135.876 43.25C134.243 41.6167 132.96 39.7333 132.026 37.6C131.126 35.4333 130.676 33.0667 130.676 30.5C130.676 27.9333 131.126 25.5833 132.026 23.45C132.96 21.2833 134.243 19.4 135.876 17.8C137.543 16.1667 139.493 14.9167 141.726 14.05C143.96 13.15 146.41 12.7 149.076 12.7C151.71 12.7 154.143 13.15 156.376 14.05C158.61 14.9167 160.543 16.15 162.176 17.75C163.843 19.35 165.126 21.2333 166.026 23.4C166.96 25.5667 167.426 27.9333 167.426 30.5C167.426 33.0667 166.96 35.4333 166.026 37.6C165.126 39.7667 163.843 41.65 162.176 43.25C160.543 44.85 158.61 46.1 156.376 47C154.143 47.8667 151.71 48.3 149.076 48.3ZM149.076 45C151.176 45 153.11 44.65 154.876 43.95C156.676 43.2167 158.226 42.2 159.526 40.9C160.86 39.5667 161.893 38.0333 162.626 36.3C163.36 34.5333 163.726 32.6 163.726 30.5C163.726 28.4 163.36 26.4833 162.626 24.75C161.893 22.9833 160.86 21.45 159.526 20.15C158.226 18.8167 156.676 17.8 154.876 17.1C153.11 16.3667 151.176 16 149.076 16C146.976 16 145.026 16.3667 143.226 17.1C141.426 17.8 139.86 18.8167 138.526 20.15C137.226 21.45 136.193 22.9833 135.426 24.75C134.693 26.4833 134.326 28.4 134.326 30.5C134.326 32.5667 134.693 34.4833 135.426 36.25C136.193 38.0167 137.226 39.5667 138.526 40.9C139.86 42.2 141.426 43.2167 143.226 43.95C145.026 44.65 146.976 45 149.076 45ZM175.72 48V13H178.77L202.92 43.4H201.32V13H204.97V48H201.92L177.82 17.6H179.42V48H175.72Z" fill="#5CCDFF"/>
</svg>
