<svg width="36" height="36" viewBox="0 0 36 36" fill="none" xmlns="http://www.w3.org/2000/svg">
<path fill-rule="evenodd" clip-rule="evenodd" d="M18 18C21.9708 18 25.2 14.7708 25.2 10.8C25.2 6.8292 21.9708 3.6 18 3.6C14.0292 3.6 10.8 6.8292 10.8 10.8C10.8 14.7708 14.0292 18 18 18ZM11.2356 19.2114C8.77681 17.2332 7.2 14.202 7.2 10.8C7.2 4.8348 12.0348 0 18 0C23.9652 0 28.8 4.8348 28.8 10.8C28.8 14.202 27.2232 17.2332 24.7644 19.2114C31.3506 21.6864 36 27.801 36 36H32.4C32.4 27 25.9398 21.6 18 21.6C10.0602 21.6 3.6 27 3.6 36H9.53674e-07C9.53674e-07 27.801 4.64941 21.6864 11.2356 19.2114Z" fill="white"/>
</svg>
